<svg width="50" height="35" viewBox="0 0 50 35" fill="none" xmlns="http://www.w3.org/2000/svg">
<path d="M49.4969 17.7138L42.8753 9.85061C42.7097 9.68507 42.4614 9.51953 42.2131 9.51953H33.1083V22.7629H0V28.5568C0 29.0534 0.331083 29.3845 0.827708 29.3845H5.62842C5.54564 29.6328 5.54564 29.9639 5.54564 30.2122C5.54564 32.5298 7.3666 34.3508 9.68419 34.3508C12.0018 34.3508 13.8227 32.5298 13.8227 30.2122C13.8227 29.9639 13.8227 29.6328 13.74 29.3845H36.5019C36.4192 29.6328 36.4192 29.9639 36.4192 30.2122C36.4192 32.5298 38.2401 34.3508 40.5577 34.3508C42.8753 34.3508 44.6962 32.5298 44.6962 30.2122C44.6962 29.9639 44.6962 29.6328 44.6135 29.3845H48.8348C49.3314 29.3845 49.6625 29.0534 49.6625 28.5568V18.2932V18.2105C49.6625 18.0449 49.5797 17.8794 49.4969 17.7138ZM47.0966 17.3828H41.3854V14.4858H44.6135L47.0966 17.3828ZM9.68419 32.6954C8.27708 32.6954 7.20106 31.6193 7.20106 30.2122C7.20106 29.7984 7.28383 29.3845 7.53214 28.9707C7.946 28.2257 8.77371 27.7291 9.68419 27.7291C9.9325 27.7291 10.098 27.7291 10.3464 27.8119C10.7602 27.8946 11.1741 28.143 11.4224 28.474C11.5879 28.6396 11.6707 28.8051 11.8362 28.9707C12.0845 29.3845 12.1673 29.7984 12.1673 30.2122C12.1673 31.6193 11.0085 32.6954 9.68419 32.6954ZM40.5577 32.6954C39.1506 32.6954 38.0746 31.6193 38.0746 30.2122C38.0746 29.7984 38.1573 29.3845 38.4057 28.9707C38.8195 28.2257 39.6472 27.7291 40.5577 27.7291C40.806 27.7291 40.9715 27.7291 41.2199 27.8119C41.6337 27.8946 42.0476 28.143 42.2959 28.474C42.4614 28.6396 42.5442 28.8051 42.7097 28.9707C42.958 29.3845 43.0408 29.7984 43.0408 30.2122C43.0408 31.6193 41.9648 32.6954 40.5577 32.6954ZM48.0071 27.7291H43.8685C43.8685 27.6463 43.7858 27.6463 43.7858 27.5636C43.703 27.4808 43.6202 27.398 43.5374 27.3153C43.4547 27.2325 43.4547 27.2325 43.3719 27.1497C43.2891 27.0669 43.2064 26.9842 43.1236 26.9842C43.0408 26.9014 43.0408 26.9014 42.9581 26.9014C42.8753 26.8186 42.7925 26.8186 42.7097 26.7359C42.627 26.7359 42.627 26.6531 42.5442 26.6531C42.4614 26.5703 42.3787 26.5703 42.2959 26.4875C42.2131 26.4875 42.1303 26.4048 42.1303 26.4048C42.0476 26.4048 41.9648 26.322 41.7993 26.322C41.7165 26.322 41.6337 26.322 41.6337 26.2392C41.5509 26.2392 41.3854 26.1565 41.3026 26.1565C41.2199 26.1565 41.2199 26.1565 41.1371 26.1565C40.9716 26.1565 40.806 26.1565 40.6405 26.1565C40.4749 26.1565 40.3094 26.1565 40.1438 26.1565C40.0611 26.1565 40.0611 26.1565 39.9783 26.1565C39.8955 26.1565 39.73 26.1565 39.6472 26.2392C39.5644 26.2392 39.4817 26.2392 39.4817 26.322C39.3989 26.322 39.3161 26.4048 39.1506 26.4048C39.0678 26.4048 38.9851 26.4875 38.9851 26.4875C38.9023 26.5703 38.8195 26.5703 38.7367 26.6531C38.654 26.6531 38.654 26.7359 38.5712 26.7359C38.4884 26.8186 38.4057 26.8186 38.3229 26.9014C38.2401 26.9014 38.2401 26.9842 38.1573 26.9842C38.0746 27.0669 37.9918 27.1497 37.909 27.1497C37.8263 27.2325 37.8263 27.2325 37.7435 27.3153C37.6607 27.398 37.5779 27.4808 37.4952 27.5636C37.4952 27.6463 37.4124 27.6463 37.4124 27.7291H12.995C12.995 27.6463 12.9122 27.6463 12.9122 27.5636C12.8295 27.4808 12.7467 27.398 12.6639 27.3153C12.5812 27.2325 12.5812 27.2325 12.4984 27.1497C12.4156 27.0669 12.3329 26.9842 12.2501 26.9842C12.1673 26.9014 12.1673 26.9014 12.0845 26.9014C12.0018 26.8186 11.919 26.8186 11.8362 26.7359C11.7535 26.7359 11.7535 26.6531 11.6707 26.6531C11.5879 26.5703 11.5051 26.5703 11.4224 26.4875C11.3396 26.4875 11.2568 26.4048 11.2568 26.4048C11.1741 26.4048 11.0913 26.322 10.9257 26.322C10.843 26.322 10.7602 26.322 10.7602 26.2392C10.6774 26.2392 10.5119 26.1565 10.4291 26.1565C10.3464 26.1565 10.3464 26.1565 10.2636 26.1565C10.098 26.1565 9.9325 26.1565 9.76696 26.1565C9.60141 26.1565 9.43587 26.1565 9.27033 26.1565C9.18756 26.1565 9.18756 26.1565 9.10479 26.1565C9.02202 26.1565 8.85648 26.1565 8.77371 26.2392C8.69094 26.2392 8.60816 26.2392 8.60816 26.322C8.52539 26.322 8.44262 26.4048 8.35985 26.4048C8.27708 26.4048 8.19431 26.4875 8.11154 26.4875C8.02877 26.4875 7.946 26.5703 7.86323 26.5703C7.78046 26.5703 7.69769 26.6531 7.61491 26.6531C7.53214 26.7359 7.44937 26.7359 7.3666 26.8186C7.28383 26.9014 7.20106 26.9014 7.20106 26.9842C7.11829 27.0669 7.11829 27.0669 7.03552 27.1497C6.95275 27.2325 6.86998 27.2325 6.86998 27.3153C6.62167 27.398 6.62167 27.4808 6.53889 27.5636C6.45612 27.6463 6.45612 27.7291 6.37335 27.7291H1.65542V24.4183H33.936C34.4327 24.4183 34.7637 24.0872 34.7637 23.5906V11.1749H41.7993L43.2064 12.8304H40.5577C40.0611 12.8304 39.73 13.1614 39.73 13.6581V18.2105C39.73 18.7071 40.0611 19.0382 40.5577 19.0382H48.0071V27.7291Z" fill="#4E9DD3"/>
<path d="M28.3075 6.70444C27.5626 2.81421 24.169 0 20.1132 0H13.6571C9.68411 0 6.2905 2.81421 5.4628 6.70444C4.46955 7.03552 3.72461 7.946 3.72461 9.02202C3.72461 9.68418 3.97292 10.2636 4.38678 10.6774C3.97292 11.0913 3.72461 11.6707 3.72461 12.3328C3.72461 13.4089 4.46955 14.4021 5.4628 14.6504C6.20773 18.5407 9.60134 21.3549 13.6571 21.3549H20.1132C24.0862 21.3549 27.4798 18.5407 28.3075 14.6504C29.3008 14.3194 30.0457 13.4089 30.0457 12.3328C30.0457 11.6707 29.7974 11.0913 29.3836 10.6774C29.7974 10.2636 30.0457 9.68418 30.0457 9.02202C30.1285 7.946 29.3836 7.03552 28.3075 6.70444ZM13.6571 1.65542H20.1132C23.1757 1.65542 25.7416 3.72469 26.5694 6.62166H26.2383L26.0727 6.45612C25.7416 5.9595 25.1622 5.79396 24.5829 5.79396H24.0862C23.5068 5.79396 22.9274 6.04227 22.5136 6.45612C22.4308 6.53889 22.2653 6.62166 22.0997 6.62166H21.6031C21.4376 6.62166 21.272 6.53889 21.1892 6.45612C20.7754 5.9595 20.196 5.79396 19.6166 5.79396H19.12C18.5406 5.79396 17.9612 6.04227 17.5473 6.45612C17.4646 6.53889 17.299 6.62166 17.1335 6.62166H16.6369C16.4713 6.62166 16.3058 6.53889 16.223 6.45612C15.8919 5.9595 15.3125 5.79396 14.7331 5.79396H14.2365C13.6571 5.79396 13.0777 6.04227 12.6639 6.45612C12.5811 6.53889 12.4155 6.62166 12.25 6.62166H11.7534C11.5878 6.62166 11.4223 6.53889 11.3395 6.45612C10.9257 5.9595 10.3463 5.79396 9.76688 5.79396H9.27025C8.69086 5.79396 8.11146 6.04227 7.69761 6.45612L7.53207 6.53889H7.28375C8.02869 3.72469 10.6774 1.65542 13.6571 1.65542ZM6.20773 8.19431H8.19423L8.8564 7.53214C9.02194 7.44937 9.10471 7.3666 9.27025 7.3666H9.76688C9.93242 7.3666 10.098 7.44937 10.1807 7.53214C10.5946 7.946 11.174 8.19431 11.7534 8.19431H12.25C12.8294 8.19431 13.4088 7.946 13.8226 7.53214C13.9054 7.44937 14.071 7.3666 14.2365 7.3666H14.7331C14.8987 7.3666 15.0642 7.44937 15.147 7.53214C15.5608 7.946 16.1402 8.19431 16.7196 8.19431H17.2163C17.7956 8.19431 18.375 7.946 18.7889 7.53214C18.8717 7.44937 19.0372 7.3666 19.12 7.3666H19.6166C19.7821 7.3666 19.9477 7.44937 20.0305 7.53214C20.4443 7.946 21.0237 8.19431 21.6031 8.19431H22.0997C22.6791 8.19431 23.2585 7.946 23.6724 7.53214C23.7551 7.44937 23.9207 7.3666 24.0862 7.3666H24.5829C24.7484 7.3666 24.9139 7.44937 24.9967 7.53214L25.6589 8.19431H27.6454C28.0592 8.19431 28.4731 8.52539 28.4731 9.02202C28.4731 9.51864 28.142 9.84973 27.6454 9.84973H6.20773C5.79388 9.84973 5.38003 9.51864 5.38003 9.02202C5.38003 8.52539 5.79388 8.19431 6.20773 8.19431ZM20.196 19.6995H13.7399C10.6774 19.6995 8.11146 17.6302 7.28375 14.7332H26.6521C25.8244 17.713 23.2585 19.6995 20.196 19.6995ZM27.6454 13.1606H6.20773C5.79388 13.1606 5.38003 12.8295 5.38003 12.3328C5.38003 11.8362 5.71111 11.5051 6.20773 11.5051H27.5626C27.9765 11.5051 28.3903 11.8362 28.3903 12.3328C28.3903 12.8295 28.0592 13.1606 27.6454 13.1606Z" fill="#4E9DD3"/>
</svg>
