<svg width="45" height="39" viewBox="0 0 45 39" fill="none" xmlns="http://www.w3.org/2000/svg">
<g clip-path="url(#clip0_1_49225)">
<path d="M32.8732 15.3958C32.1937 11.8426 29.0508 9.30469 25.3982 9.30469H19.4522C15.7996 9.30469 12.6567 11.9272 11.9772 15.3958C11.0428 15.6496 10.3633 16.4956 10.3633 17.5108C10.3633 18.103 10.6181 18.6105 10.9579 19.0335C10.6181 19.4565 10.3633 19.9641 10.3633 20.5563C10.3633 21.5715 11.0428 22.4175 11.9772 22.6713C12.6567 26.2244 15.7996 28.7624 19.4522 28.7624H25.3982C29.0508 28.7624 32.1937 26.1398 32.8732 22.6713C33.8076 22.4175 34.4871 21.5715 34.4871 20.5563C34.4871 19.9641 34.2323 19.4565 33.8925 19.0335C34.2323 18.6105 34.4871 18.103 34.4871 17.5108C34.4871 16.4956 33.8076 15.6496 32.8732 15.3958ZM19.4522 10.7429H25.3982C28.2013 10.7429 30.5798 12.604 31.3442 15.2266H31.0894L30.9195 15.0574C30.4948 14.6344 29.9852 14.4652 29.4755 14.4652H29.0508C28.5411 14.4652 28.0315 14.6344 27.6067 15.0574C27.5218 15.142 27.3519 15.2266 27.267 15.2266H26.8423C26.6724 15.2266 26.5874 15.142 26.5025 15.0574C26.0778 14.6344 25.5681 14.4652 25.0585 14.4652H24.6337C24.1241 14.4652 23.6144 14.6344 23.1897 15.0574C23.1048 15.142 22.9349 15.2266 22.8499 15.2266H22.4252C22.2553 15.2266 22.1704 15.142 22.0854 15.0574C21.6607 14.6344 21.1511 14.4652 20.6414 14.4652H20.2167C19.707 14.4652 19.1974 14.6344 18.7727 15.0574C18.6877 15.142 18.5178 15.2266 18.4329 15.2266H18.0082C17.8383 15.2266 17.7533 15.142 17.6684 15.0574C17.2437 14.6344 16.734 14.4652 16.2244 14.4652H15.7996C15.29 14.4652 14.7803 14.6344 14.3556 15.0574L14.1857 15.2266H13.5911C14.2707 12.6886 16.6491 10.7429 19.4522 10.7429ZM12.6567 16.7494H14.4406L15.0352 16.1572C15.1201 16.0726 15.29 16.0726 15.4599 16.0726H15.8846C16.0545 16.0726 16.1394 16.1572 16.2244 16.2418C16.6491 16.6648 17.1587 16.834 17.6684 16.834H18.0931C18.6028 16.834 19.1124 16.6648 19.5371 16.2418C19.6221 16.1572 19.792 16.0726 19.8769 16.0726H20.3866C20.5565 16.0726 20.6414 16.1572 20.7263 16.2418C21.1511 16.6648 21.6607 16.834 22.1704 16.834H22.5951C23.1048 16.834 23.6144 16.6648 24.0391 16.2418C24.1241 16.1572 24.294 16.0726 24.3789 16.0726H24.8036C24.9735 16.0726 25.0585 16.1572 25.1434 16.2418C25.5681 16.6648 26.0778 16.834 26.5874 16.834H27.182C27.6917 16.834 28.2013 16.6648 28.6261 16.2418C28.711 16.0726 28.8809 16.0726 28.9658 16.0726H29.3906C29.5604 16.0726 29.6454 16.1572 29.7303 16.2418L30.3249 16.834H32.2786C32.7033 16.834 33.0431 17.1724 33.0431 17.5954C33.0431 18.0184 32.7033 18.3567 32.2786 18.3567H12.6567C12.232 18.3567 11.8923 18.0184 11.8923 17.5954C11.8923 17.1724 12.232 16.7494 12.6567 16.7494ZM25.3982 27.3242H19.4522C16.6491 27.3242 14.2707 25.463 13.5062 22.8405H31.2593C30.5798 25.3784 28.2013 27.3242 25.3982 27.3242ZM32.2786 21.3177H12.6567C12.232 21.3177 11.8923 20.9793 11.8923 20.5563C11.8923 20.1333 12.232 19.7949 12.6567 19.7949H32.2786C32.7033 19.7949 33.0431 20.1333 33.0431 20.5563C33.0431 20.9793 32.6184 21.3177 32.2786 21.3177Z" fill="#4E9DD3"/>
<path d="M10.3621 1.69197C15.7984 1.69197 20.98 6.7679 21.2348 7.02169C21.5746 7.36009 21.9993 7.44469 22.3391 7.44469C22.6788 7.44469 23.1035 7.27549 23.4433 7.02169C23.5283 7.02169 26.0766 4.48373 29.5592 2.96095C31.343 2.19957 32.9569 1.77657 34.4859 1.77657C36.6944 1.77657 38.6481 2.62256 40.347 4.31453C42.4706 6.3449 43.32 8.79826 43.0652 11.59C42.1308 21.9111 26.2464 34.0933 22.3391 36.9696C20.6402 35.7007 16.7328 32.7397 12.7405 28.9328C6.02996 22.2495 2.20752 16.3275 1.69786 11.5054C1.52797 8.71367 2.3774 6.3449 4.41604 4.22994C6.28479 2.36876 8.40837 1.69197 10.3621 1.69197ZM10.3621 0C7.64388 0 5.26547 1.01518 3.22683 3.04555C0.763482 5.58351 -0.255836 8.37527 -0.00100627 11.6746C0.508653 16.9197 4.41604 23.0954 11.6362 30.0325C15.7984 34.0087 19.8757 37.1388 21.4047 38.2386L22.424 39L23.4433 38.2386C28.2001 34.7701 43.8297 22.5879 44.849 11.6746C45.1888 8.29067 44.0845 5.41432 41.6212 3.04555C39.5825 1.01518 37.2041 0 34.4859 0C32.7021 0 30.8334 0.422994 28.8797 1.35358C26.841 2.28416 24.8024 3.55315 22.8487 5.32972H22.7638L22.3391 5.75271C21.5746 4.90672 16.2231 0 10.3621 0Z" fill="#4E9DD3"/>
</g>
<defs>
<clipPath id="clip0_1_49225">
<rect width="44.85" height="39" fill="white"/>
</clipPath>
</defs>
</svg>
