<svg width="60" height="32" viewBox="0 0 60 32" fill="none" xmlns="http://www.w3.org/2000/svg">
<path d="M23.3253 21.695C22.5122 27.1363 19.5309 30.5529 15.601 30.6162C14.7201 30.9958 13.7715 31.2489 12.8229 31.2489C9.0285 31.2489 5.23409 28.2119 2.32053 22.9604C-1.6094 15.8741 0.626592 5.05478 0.69435 4.61189C0.762107 4.23226 1.23641 3.97918 1.64295 4.16899C1.91398 4.29553 5.84391 5.94057 9.84159 8.78776C11.2645 5.94057 13.0939 3.21993 14.8556 1.13199C14.9912 1.00545 15.1944 0.878906 15.3977 0.878906C15.601 0.878906 15.8042 1.00545 15.9398 1.13199C17.0916 2.46068 18.7178 4.73843 20.073 7.14272C24.6127 4.3588 30.101 3.21993 30.7786 3.09339H30.8464C30.9141 3.09339 31.6595 3.03011 31.6595 3.66282C31.6595 4.04245 31.5239 13.28 26.9842 18.4682C25.7646 19.7969 24.5449 20.8725 23.3253 21.695Z" fill="#E9D4C6"/>
<path d="M23.3253 21.695C22.5122 27.1363 19.5309 30.5529 15.601 30.6162C14.7201 30.9958 13.7715 31.2489 12.8229 31.2489C9.0285 31.2489 5.23409 28.2119 2.32053 22.9604C-1.6094 15.8741 0.626592 5.05478 0.69435 4.61189C0.762107 4.23226 1.23641 3.97918 1.64295 4.16899C1.91398 4.29553 5.84391 5.94057 9.84159 8.78776C11.2645 5.94057 13.0939 3.21993 14.8556 1.13199C14.9912 1.00545 15.1944 0.878906 15.3977 0.878906C15.601 0.878906 15.8042 1.00545 15.9398 1.13199C17.0916 2.46068 18.7178 4.73843 20.073 7.14272C24.6127 4.3588 30.101 3.21993 30.7786 3.09339H30.8464C30.9141 3.09339 31.6595 3.03011 31.6595 3.66282C31.6595 4.04245 31.5239 13.28 26.9842 18.4682C25.7646 19.7969 24.5449 20.8725 23.3253 21.695ZM25.9001 17.6457C28.3393 14.8618 29.4235 10.6859 29.8978 7.64889C28.5426 10.3695 26.3744 14.1658 23.5286 17.2661C23.5963 18.0886 23.5963 19.0376 23.5286 19.9234C24.3417 19.2907 25.087 18.5315 25.9001 17.6457ZM23.3253 15.4945C26.2389 11.9513 28.4071 7.64889 29.4912 5.30786C27.594 6.51001 24.6805 8.53468 21.9702 11.0022C22.58 12.3942 23.0543 14.0392 23.3253 15.4945ZM17.9047 22.391C18.7178 16.5701 17.2949 9.3572 15.4655 3.66282V3.59955C13.1617 10.7492 10.7902 22.9604 15.4655 28.9712C15.4655 28.9079 17.2949 26.8832 17.9047 22.391ZM3.4724 22.391C6.04718 27.073 9.29953 29.7937 12.4841 29.9835C10.5869 29.0344 9.29953 27.2628 8.48645 25.3014C8.28317 24.732 4.21773 20.3663 1.50744 8.72449C1.16865 12.5207 1.16865 18.2151 3.4724 22.391ZM8.14766 12.9004C5.97942 10.1797 3.81119 7.96524 2.38828 6.57328C3.06586 9.67355 4.55652 15.8741 7.40233 21.1256C6.99578 17.8988 7.26681 15.4945 8.14766 12.9004ZM4.75979 7.14272C5.91167 8.34486 7.26681 9.80009 8.62196 11.4451C8.82523 10.939 9.0285 10.4328 9.23178 9.98991C7.74111 8.78776 6.11494 7.8387 4.75979 7.14272ZM8.62196 18.0886C8.62196 22.2012 9.70608 27.8956 13.907 29.161C9.63832 22.9604 11.5355 12.0778 13.636 4.99151C11.1967 8.53468 8.62196 13.8494 8.62196 18.0886ZM16.9561 29.161C22.2412 27.6425 23.2575 18.4682 21.1571 12.584C20.2085 9.98991 18.7856 7.3958 17.2949 5.11805C19.3276 12.2044 21.1571 22.9604 16.9561 29.161ZM21.4281 9.73682C23.3253 8.02851 25.358 6.51001 27.052 5.37114C25.1548 6.00384 22.7832 6.95291 20.7505 8.21832C20.7505 8.34487 21.1571 9.04084 21.4281 9.73682Z" fill="black"/>
<path d="M50.26 32H25.0319C19.7645 32 15.5137 28.2039 15.5137 23.5C15.5137 18.7961 19.7645 15 25.0319 15H50.26C55.5273 15 59.7782 18.7961 59.7782 23.5C59.7782 28.2039 55.5273 32 50.26 32Z" fill="#6DCBBA"/>
<path d="M22.8701 21.61C22.7454 21.654 22.5218 21.7127 22.1991 21.786C21.8764 21.852 21.6234 21.896 21.4401 21.918L21.3191 21.148C21.7151 21.0673 22.1258 20.9243 22.5511 20.719C22.9838 20.5063 23.3358 20.2863 23.6071 20.059H23.6181L24.4871 20.18V26.23L25.7411 26.351V27H21.5501V26.351L22.8701 26.241V21.61ZM29.4592 27.11C28.5205 27.11 27.8019 26.7983 27.3032 26.175C26.8119 25.5443 26.5662 24.69 26.5662 23.612C26.5662 22.8493 26.7092 22.204 26.9952 21.676C27.2812 21.1407 27.6589 20.741 28.1282 20.477C28.6049 20.2057 29.1329 20.07 29.7122 20.07C30.6582 20.07 31.3695 20.3707 31.8462 20.972C32.3229 21.566 32.5612 22.4093 32.5612 23.502C32.5612 24.2573 32.4219 24.91 32.1432 25.46C31.8719 26.0027 31.5015 26.4133 31.0322 26.692C30.5629 26.9707 30.0385 27.11 29.4592 27.11ZM29.5692 26.45C30.0312 26.45 30.3685 26.2153 30.5812 25.746C30.8012 25.2693 30.9112 24.5617 30.9112 23.623C30.9112 22.6257 30.8085 21.896 30.6032 21.434C30.4052 20.9647 30.0642 20.73 29.5802 20.73C28.6709 20.73 28.2162 21.6503 28.2162 23.491C28.2162 24.4737 28.3225 25.2143 28.5352 25.713C28.7552 26.2043 29.0999 26.45 29.5692 26.45ZM36.6887 27.11C35.75 27.11 35.0314 26.7983 34.5327 26.175C34.0414 25.5443 33.7957 24.69 33.7957 23.612C33.7957 22.8493 33.9387 22.204 34.2247 21.676C34.5107 21.1407 34.8884 20.741 35.3577 20.477C35.8344 20.2057 36.3624 20.07 36.9417 20.07C37.8877 20.07 38.599 20.3707 39.0757 20.972C39.5524 21.566 39.7907 22.4093 39.7907 23.502C39.7907 24.2573 39.6514 24.91 39.3727 25.46C39.1014 26.0027 38.731 26.4133 38.2617 26.692C37.7924 26.9707 37.268 27.11 36.6887 27.11ZM36.7987 26.45C37.2607 26.45 37.598 26.2153 37.8107 25.746C38.0307 25.2693 38.1407 24.5617 38.1407 23.623C38.1407 22.6257 38.038 21.896 37.8327 21.434C37.6347 20.9647 37.2937 20.73 36.8097 20.73C35.9004 20.73 35.4457 21.6503 35.4457 23.491C35.4457 24.4737 35.552 25.2143 35.7647 25.713C35.9847 26.2043 36.3294 26.45 36.7987 26.45ZM47.4822 18.739H48.5052L44.9742 27H43.9622L47.4822 18.739ZM42.9942 23.535C42.5615 23.535 42.1912 23.4323 41.8832 23.227C41.5752 23.0217 41.3405 22.743 41.1792 22.391C41.0178 22.039 40.9372 21.6503 40.9372 21.225C40.9372 20.7337 41.0362 20.3083 41.2342 19.949C41.4322 19.5823 41.6998 19.3037 42.0372 19.113C42.3818 18.9223 42.7632 18.827 43.1812 18.827C43.8925 18.827 44.4132 19.0397 44.7432 19.465C45.0805 19.8903 45.2492 20.455 45.2492 21.159C45.2492 21.6503 45.1465 22.0757 44.9412 22.435C44.7432 22.7943 44.4718 23.0693 44.1272 23.26C43.7825 23.4433 43.4048 23.535 42.9942 23.535ZM43.0822 22.875C43.3902 22.875 43.6138 22.7283 43.7532 22.435C43.8998 22.1343 43.9732 21.7237 43.9732 21.203C43.9732 20.7043 43.9035 20.2973 43.7642 19.982C43.6322 19.6593 43.4158 19.498 43.1152 19.498C42.8145 19.498 42.5908 19.6447 42.4442 19.938C42.2975 20.2313 42.2242 20.6383 42.2242 21.159C42.2242 21.6283 42.2938 22.0317 42.4332 22.369C42.5725 22.7063 42.7888 22.875 43.0822 22.875ZM49.2972 26.846C48.8718 26.846 48.5015 26.7433 48.1862 26.538C47.8782 26.3253 47.6435 26.0467 47.4822 25.702C47.3208 25.35 47.2402 24.9613 47.2402 24.536C47.2402 24.0447 47.3392 23.6193 47.5372 23.26C47.7352 22.8933 48.0065 22.6147 48.3512 22.424C48.6958 22.2333 49.0772 22.138 49.4952 22.138C50.1992 22.138 50.7162 22.3507 51.0462 22.776C51.3835 23.2013 51.5522 23.766 51.5522 24.47C51.5522 24.9613 51.4495 25.3867 51.2442 25.746C51.0462 26.1053 50.7748 26.3803 50.4302 26.571C50.0855 26.7543 49.7078 26.846 49.2972 26.846ZM49.3852 26.175C49.6932 26.175 49.9168 26.0283 50.0562 25.735C50.2028 25.4417 50.2762 25.0347 50.2762 24.514C50.2762 24.0227 50.2065 23.6157 50.0672 23.293C49.9352 22.9703 49.7225 22.809 49.4292 22.809C49.1212 22.809 48.8938 22.9557 48.7472 23.249C48.6005 23.5423 48.5272 23.9493 48.5272 24.47C48.5272 24.9393 48.5968 25.3427 48.7362 25.68C48.8755 26.01 49.0918 26.175 49.3852 26.175Z" fill="black"/>
</svg>
